<?xml version="1.0" encoding="UTF-8" standalone="no"?> <svg xmlns="http://www.w3.org/2000/svg" xmlns:svg="http://www.w3.org/2000/svg" version="1.1" id="svg96" xml:space="preserve" width="682.66669" height="682.66669" viewBox="0 0 682.66669 682.66669"><defs id="defs100"><clipPath id="clipPath110"><path d="M 0,512 H 512 V 0 H 0 Z" id="path108"></path></clipPath></defs><g id="g102" transform="matrix(1.3333333,0,0,-1.3333333,0,682.66667)"><g id="g104"><g id="g106" clip-path="url(#clipPath110)"><g id="g112" transform="translate(123.582,497.1528)"><path d="M 0,0 V -346.869" style="fill:none;stroke:#000000;stroke-width:20;stroke-linecap:round;stroke-linejoin:round;stroke-miterlimit:10;stroke-dasharray:none;stroke-opacity:1" id="path114"></path></g><g id="g116" transform="translate(123.582,88.0361)"><path d="M 0,0 C 30.784,0 55.898,13.975 55.898,31.124 55.898,48.273 30.784,62.248 0,62.248 -30.755,62.248 -55.87,48.273 -55.87,31.124 -55.87,13.975 -30.755,0 0,0 Z" style="fill:none;stroke:#000000;stroke-width:20;stroke-linecap:round;stroke-linejoin:round;stroke-miterlimit:10;stroke-dasharray:none;stroke-opacity:1" id="path118"></path></g><g id="g120" transform="translate(386.1787,159.7231)"><path d="M 0,0 C 22.705,0 41.215,18.51 41.215,41.215 41.215,63.92 22.705,82.43 0,82.43 -22.705,82.43 -41.215,63.92 -41.215,41.215 -41.215,18.51 -22.705,0 0,0 Z" style="fill:none;stroke:#000000;stroke-width:20;stroke-linecap:round;stroke-linejoin:round;stroke-miterlimit:10;stroke-dasharray:none;stroke-opacity:1" id="path122"></path></g><g id="g124" transform="translate(426.8267,194.2202)"><path d="m 0,0 c 46.346,-18.992 75.173,-45.581 75.173,-75.06 0,-57.599 -110.152,-104.313 -246.014,-104.313 -135.862,0 -245.986,46.714 -245.986,104.313 0,57.599 110.124,104.313 245.986,104.313 32.456,0 63.438,-2.665 91.813,-7.512" style="fill:none;stroke:#000000;stroke-width:20;stroke-linecap:round;stroke-linejoin:round;stroke-miterlimit:10;stroke-dasharray:none;stroke-opacity:1" id="path126"></path></g><g id="g128" transform="translate(123.582,448.3413)"><path d="m 0,0 c 29.423,29.423 77.101,29.423 106.496,0 29.422,-29.395 77.101,-29.395 106.524,0 v -126.14 c -29.423,-29.422 -77.102,-29.422 -106.524,0 -29.395,29.395 -77.073,29.395 -106.496,0" style="fill:none;stroke:#000000;stroke-width:20;stroke-linecap:round;stroke-linejoin:round;stroke-miterlimit:10;stroke-dasharray:none;stroke-opacity:1" id="path130"></path></g></g></g></g></svg> 