<?xml version="1.0" encoding="UTF-8"?> <svg xmlns="http://www.w3.org/2000/svg" id="Outline" height="512" viewBox="0 0 512 512" width="512"><path d="m373.812 451.222-53.812-188.342v-91.126c0-19.248-13.986-35.882-32.781-39.338 10.262-8.81 16.781-21.862 16.781-36.416 0-26.468-21.532-48-48-48s-48 21.532-48 48c0 3.601.411 7.105 1.167 10.481-11.147 4.123-20.13 13.109-24.05 24.87l-7.317 21.952-38.967 9.742-39.824-86.282 22.019-7.339h.001c6.604-2.202 11.969-7.133 14.583-13.585 4.753-11.733-1.458-21.42-1.458-21.42-5.79-11.577-20.021-16.494-31.722-10.965l-15.371 7.265c-11.506 5.438-16.77 18.936-11.981 30.728l48.424 106.57c-7.002 4.266-11.504 11.925-11.504 20.475v19.508c0 22.056 17.944 40 40 40h40v14.88l-53.813 188.342c-3.056 10.696-.967 21.924 5.732 30.804 6.699 8.881 16.92 13.975 28.044 13.975 15.518 0 29.01-9.965 33.575-24.797l50.461-164 50.461 164.001c4.566 14.83 18.059 24.795 33.576 24.795 11.124 0 21.346-5.094 28.044-13.975 6.699-8.879 8.788-20.107 5.732-30.803zm-117.812-387.222c17.645 0 32 14.355 32 32s-14.355 32-32 32-32-14.355-32-32 14.355-32 32-32zm-70.06 103.761c2.653-.663 4.784-2.636 5.649-5.231l8.706-26.118c2.412-7.237 8.023-12.711 14.948-15.095 6.389 10.249 16.529 17.925 28.489 21.089-6.993 11.921-21.848 32.125-46.446 42.063-2.159.667-23.314 6.816-69.287 7.471v-3.448c0-3.678 2.492-6.869 6.06-7.762zm-92.042-122.576 15.371-7.265c1.088-.514 2.24-.757 3.379-.757 2.947 0 5.804 1.629 7.195 4.412 0 0 2.736 4.22.986 8.141-.96 2.151-2.628 3.784-4.861 4.528h.001l-23.381 7.794-2.685-6.61c-1.595-3.931.159-8.431 3.995-10.243zm261.409 427.206c-3.647 4.836-9.214 7.609-15.271 7.609-8.45 0-15.797-5.426-18.282-13.502l-58.107-188.851c-1.034-3.356-4.135-5.647-7.647-5.647s-6.613 2.291-7.646 5.647l-58.107 188.85c-2.485 8.077-9.832 13.503-18.282 13.503-6.057 0-11.623-2.773-15.271-7.609s-4.785-10.949-3.121-16.773l54.12-189.419c.204-.715.308-1.455.308-2.198v-16.65c15.957-2.144 52.287-11.358 78.656-50.912 2.451-3.676 1.458-8.644-2.219-11.094-3.68-2.452-8.645-1.458-11.094 2.219-29.067 43.601-71.541 44.424-73.37 44.438h-47.974c-13.233 0-24-10.767-24-24v-.061c50.98-.709 73.55-8.023 74.53-8.35.148-.05.295-.104.44-.162 33.732-13.493 51.458-42.3 57.762-54.67l22.661 3.237c11.749 1.677 20.607 11.891 20.607 23.758v92.246c0 .743.104 1.483.308 2.198l54.12 189.419c1.664 5.824.526 11.938-3.121 16.774zm-99.307-40.391c-13.233 0-24 10.767-24 24 0 10.429 6.689 19.321 16 22.624v9.376c0 4.418 3.582 8 8 8s8-3.582 8-8v-9.376c9.311-3.302 16-12.195 16-22.624 0-13.233-10.767-24-24-24zm0 32c-4.411 0-8-3.589-8-8s3.589-8 8-8 8 3.589 8 8-3.589 8-8 8z"></path></svg> 