<?xml version="1.0" encoding="UTF-8"?> <svg xmlns="http://www.w3.org/2000/svg" xmlns:xlink="http://www.w3.org/1999/xlink" version="1.1" id="Capa_1" x="0px" y="0px" viewBox="0 0 512 512" style="enable-background:new 0 0 512 512;" xml:space="preserve"> <g> <g> <g> <path d="M441.888,0H384v32h38.112l48,96H310.624L256,73.376L201.376,128H41.888l48-96H224V0H70.112L0,140.224V512h512V140.224 L441.888,0z M320,480H192v-32h128V480z M224,416V288h64v128H224z M480,480H352v-64h-32V256H192v160h-32v64H32V160h137.376 l-36.688,36.688l22.624,22.624L256,118.624l100.688,100.688l22.624-22.624L342.624,160H480V480z"></path> <path d="M64,384h96V256H64V384z M96,288h32v64H96V288z"></path> <path d="M352,384h96V256h-96V384z M384,288h32v64h-32V288z"></path> <rect x="320" width="32" height="32"></rect> <rect x="256" width="32" height="32"></rect> </g> </g> </g> <g> </g> <g> </g> <g> </g> <g> </g> <g> </g> <g> </g> <g> </g> <g> </g> <g> </g> <g> </g> <g> </g> <g> </g> <g> </g> <g> </g> <g> </g> </svg> 