<?xml version="1.0" encoding="UTF-8"?> <svg xmlns="http://www.w3.org/2000/svg" clip-rule="evenodd" fill-rule="evenodd" height="512" stroke-linejoin="round" stroke-miterlimit="2" viewBox="0 0 48 48" width="512"><g transform="translate(-48 -144)"><g id="Icon"><path d="m77.444 157.832c-.923.459-1.745 1.09-2.423 1.853-.914-.439-1.939-.685-3.021-.685s-2.107.246-3.021.685c-.678-.763-1.5-1.394-2.423-1.853 1.482-1.093 2.444-2.851 2.444-4.832 0-3.311-2.689-6-6-6s-6 2.689-6 6c0 1.981.962 3.739 2.444 4.832-2.634 1.309-4.444 4.027-4.444 7.168v.342c-2.329.824-4 3.048-4 5.658 0 1.982.963 3.74 2.446 4.833-.771.382-1.483.89-2.103 1.51-1.5 1.5-2.343 3.535-2.343 5.657v3c0 1.657 1.343 3 3 3h10c.768 0 1.469-.289 2-.764.531.475 1.232.764 2 .764h12c.768 0 1.469-.289 2-.764.531.475 1.232.764 2 .764h10c1.657 0 3-1.343 3-3v-3c0-2.122-.843-4.157-2.343-5.657-.62-.62-1.332-1.128-2.103-1.51 1.483-1.093 2.446-2.851 2.446-4.833 0-2.61-1.671-4.834-4-5.658v-.342c0-3.141-1.81-5.859-4.444-7.168 1.482-1.093 2.444-2.851 2.444-4.832 0-3.311-2.689-6-6-6s-6 2.689-6 6c0 1.981.962 3.739 2.444 4.832zm-20.444 19.168c-1.591 0-3.117.632-4.243 1.757-1.125 1.126-1.757 2.652-1.757 4.243v3c0 .552.448 1 1 1h10c.552 0 1-.448 1-1v-3c0-1.591-.632-3.117-1.757-4.243-1.126-1.125-2.652-1.757-4.243-1.757zm30 0c-1.591 0-3.117.632-4.243 1.757-1.125 1.126-1.757 2.652-1.757 4.243v3c0 .552.448 1 1 1h10c.552 0 1-.448 1-1v-3c0-1.591-.632-3.117-1.757-4.243-1.126-1.125-2.652-1.757-4.243-1.757zm-15-4c-3.866 0-7 3.134-7 7v6c0 .552.448 1 1 1h12c.552 0 1-.448 1-1v-6c0-3.866-3.134-7-7-7zm15-8c0-3.314-2.686-6-6-6-1.686 0-3.209.695-4.299 1.815 1.412 1.281 2.299 3.13 2.299 5.185 0 2.448-1.26 4.605-3.165 5.856 2.463 1.161 4.314 3.408 4.937 6.123.178-.221.369-.433.571-.636.62-.62 1.332-1.128 2.103-1.51-1.483-1.093-2.446-2.851-2.446-4.833 0-3.311 2.689-6 6-6zm-19.701-4.185c-1.09-1.12-2.613-1.815-4.299-1.815-3.314 0-6 2.686-6 6 3.311 0 6 2.689 6 6 0 1.982-.963 3.74-2.446 4.833.771.382 1.483.89 2.103 1.51.202.203.393.415.571.636.623-2.715 2.474-4.962 4.937-6.123-1.905-1.251-3.165-3.408-3.165-5.856 0-2.055.887-3.904 2.299-5.185zm19.701 14.185c-2.208 0-4-1.792-4-4s1.792-4 4-4 4 1.792 4 4-1.792 4-4 4zm-29.948 0h-.052c-2.208 0-4-1.792-4-4s1.792-4 4-4 4 1.792 4 4c0 2.19-1.764 3.972-3.948 4zm14.948-14c2.76 0 5 2.24 5 5s-2.24 5-5 5-5-2.24-5-5 2.24-5 5-5zm-9-12c2.208 0 4 1.792 4 4s-1.792 4-4 4-4-1.792-4-4 1.792-4 4-4zm18 0c2.208 0 4 1.792 4 4s-1.792 4-4 4-4-1.792-4-4 1.792-4 4-4z"></path></g></g></svg> 